# Blender v3.0.0 OBJ File: 'finalScene.blend'
# www.blender.org
mtllib planes.mtl
o pPlane1_Mesh.002
v 15.000002 30.000000 15.000000
v 15.000003 0.000000 15.000000
v 14.999998 0.000000 -15.000000
v 14.999997 30.000000 -15.000000
v 15.000001 -0.000001 15.000000
v -15.000000 0.000001 15.000000
v -14.999998 0.000006 -15.000000
v 15.000001 0.000004 -15.000000
v 15.000001 0.000002 -15.000001
v -14.999998 0.000003 -15.000001
v -14.999996 30.000002 -14.999998
v 15.000002 30.000000 -14.999998
vt 1.000000 0.000000
vt 0.000000 1.000000
vt 0.000000 0.000000
vt 1.000000 1.000000
vt 1.000000 0.000000
vt 0.000000 1.000000
vt 0.000000 0.000000
vt 1.000000 1.000000
vt 1.000000 0.000000
vt 0.000000 1.000000
vt 0.000000 0.000000
vt 1.000000 1.000000
vn -1.0000 0.0000 0.0000
vn 0.0000 1.0000 0.0000
vn 0.0000 -0.0000 1.0000
usemtl floor
s 1
f 1/1/1 3/2/1 2/3/1
f 4/4/1 3/2/1 1/1/1
f 5/5/2 7/6/2 6/7/2
f 8/8/2 7/6/2 5/5/2
f 9/9/3 11/10/3 10/11/3
f 12/12/3 11/10/3 9/9/3
